<?xml version="1.0" encoding="utf-8"?>
<!-- Generator: Adobe Illustrator 21.0.0, SVG Export Plug-In . SVG Version: 6.00 Build 0)  -->
<svg version="1.1" id="图层_1" xmlns="http://www.w3.org/2000/svg" xmlns:xlink="http://www.w3.org/1999/xlink" x="0px" y="0px"
	 viewBox="0 0 60 60" style="enable-background:new 0 0 60 60;" xml:space="preserve">
<style type="text/css">
	.st0{fill:#7F60BC;}
	.st1{fill:none;}
	.st2{fill:#0090FE;}
	.st3{fill:#FFFFFF;}
	.st4{fill:#F4F8FC;}
</style>
<path class="st3" d="M56.1,60c-1,0-1.8-0.7-2.1-1.6c-2.9-11.1-12.8-18.9-24-18.9c-11.2,0-21,7.7-24,18.8c-0.1,0.6-0.5,1.1-1,1.3
	c-0.3,0.2-0.7,0.3-1,0.3c-0.2,0-0.4,0-0.6-0.1c-1.1-0.3-1.8-1.5-1.5-2.7c2.4-8.9,8.8-16.3,17.2-19.8l1.2-0.5L19.2,36
	c-5.3-3.7-8.4-9.8-8.4-16.3C10.8,8.9,19.4,0,30,0c10.6,0,19.2,8.9,19.2,19.7c0,6.5-3.1,12.6-8.4,16.3l-1.1,0.7l1.2,0.5
	c8.4,3.5,14.9,11,17.2,19.9c0.3,1.2-0.4,2.4-1.5,2.7C56.4,60,56.2,60,56.1,60z M30,4.4c-8.2,0-14.9,6.9-14.9,15.3
	C15.1,28.2,21.8,35,30,35c8.2,0,14.9-6.9,14.9-15.3C44.9,11.3,38.2,4.4,30,4.4z"/>
</svg>
